<svg xmlns="http://www.w3.org/2000/svg" width="124.625" height="25.344" viewBox="0 0 124.625 25.344">
  <defs>
    <style>
      .cls-1 {
        fill: #fff;
        fill-rule: evenodd;
      }
    </style>
  </defs>
  <path id="_92node.svg" data-name="92node.svg" class="cls-1" d="M49.428,35.848a4.358,4.358,0,0,1-1.454,1.371,3.6,3.6,0,0,1-1.806.485,3.222,3.222,0,0,1-1.922-.61,3.357,3.357,0,0,1-1.22-1.613,2.5,2.5,0,0,0-.886-1.229,2.249,2.249,0,0,0-1.321-.41,1.733,1.733,0,0,0-1.321.552,1.782,1.782,0,0,0-.518,1.254,4.227,4.227,0,0,0,.836,2.366,6.43,6.43,0,0,0,2.441,2.056,8.141,8.141,0,0,0,3.778.828,9.231,9.231,0,0,0,3.945-.811,7.854,7.854,0,0,0,2.984-2.474,11.9,11.9,0,0,0,1.9-4.112,22.1,22.1,0,0,0,.652-5.659,19.649,19.649,0,0,0-.619-5.149,10.717,10.717,0,0,0-1.772-3.77A7.586,7.586,0,0,0,50.28,16.64a9.014,9.014,0,0,0-3.845-.786,8.916,8.916,0,0,0-3.419.635,7.924,7.924,0,0,0-2.666,1.772,7.816,7.816,0,0,0-1.722,2.683,9.12,9.12,0,0,0-.067,6.336,7.678,7.678,0,0,0,1.53,2.558,7.062,7.062,0,0,0,5.291,2.315,6.825,6.825,0,0,0,3.017-.66,7.55,7.55,0,0,0,2.466-1.964q-0.234,4.531-1.438,6.319h0Zm0.46-8.994a4.153,4.153,0,0,1-1.538,1.58,3.915,3.915,0,0,1-1.981.543,3.483,3.483,0,0,1-2.792-1.321,5.351,5.351,0,0,1-1.1-3.544,5.551,5.551,0,0,1,1.1-3.6,3.349,3.349,0,0,1,2.691-1.363,3.645,3.645,0,0,1,1.7.4,4.1,4.1,0,0,1,1.337,1.1,5.19,5.19,0,0,1,.869,1.663,6.821,6.821,0,0,1,.309,2.1A4.83,4.83,0,0,1,49.887,26.854Zm16.524,8.626a26.833,26.833,0,0,1,3.452-3.193q2.516-2.056,3.586-3.018a11.719,11.719,0,0,0,2.1-2.658,7.133,7.133,0,0,0,1.028-3.77A6.9,6.9,0,0,0,74.7,18.128a6.569,6.569,0,0,0-2.056-1.471,10.7,10.7,0,0,0-4.363-.8,10.006,10.006,0,0,0-3.7.627,7.658,7.658,0,0,0-2.608,1.647A6.9,6.9,0,0,0,60.427,20.4a6.294,6.294,0,0,0-.518,2.407,2.033,2.033,0,0,0,.552,1.5,1.881,1.881,0,0,0,1.388.552,1.761,1.761,0,0,0,1.446-.6,5.727,5.727,0,0,0,.886-1.722,8.317,8.317,0,0,1,.56-1.371,3.909,3.909,0,0,1,3.444-1.922,4.006,4.006,0,0,1,1.914.468,3.537,3.537,0,0,1,1.388,1.312A3.631,3.631,0,0,1,72,22.943a4.769,4.769,0,0,1-.477,2.014,7.741,7.741,0,0,1-1.388,2.006,14.759,14.759,0,0,1-2.282,1.948,26.366,26.366,0,0,0-2.558,2.165Q63.5,32.722,61.28,35.029a5.723,5.723,0,0,0-.986,1.563,4.15,4.15,0,0,0-.451,1.6,2.218,2.218,0,0,0,.7,1.63,2.662,2.662,0,0,0,1.956.694H74.8a2.178,2.178,0,0,0,1.647-.568,1.934,1.934,0,0,0,.543-1.388,1.747,1.747,0,0,0-.685-1.454,3.182,3.182,0,0,0-1.989-.535H65.593a9.471,9.471,0,0,1,.819-1.087h0Zm18.781-11.97a2.038,2.038,0,0,0-.777-0.852,2.11,2.11,0,0,0-1.087-.284,1.967,1.967,0,0,0-1.555.644,2.872,2.872,0,0,0-.568,1.947v13.19a3.006,3.006,0,0,0,.635,2.056,2.068,2.068,0,0,0,1.622.719,2.167,2.167,0,0,0,1.663-.694,2.965,2.965,0,0,0,.644-2.081V32.438a14.294,14.294,0,0,1,.334-3.811,4.18,4.18,0,0,1,1.471-2A3.7,3.7,0,0,1,89.8,25.9a2.554,2.554,0,0,1,2.5,1.2,7.6,7.6,0,0,1,.627,3.452v7.606a3.006,3.006,0,0,0,.635,2.056,2.1,2.1,0,0,0,1.655.719,2.083,2.083,0,0,0,1.63-.7,3.023,3.023,0,0,0,.627-2.073V29.663a18.719,18.719,0,0,0-.134-2.474,5.293,5.293,0,0,0-.585-1.805A5,5,0,0,0,94.63,23.16a6.557,6.557,0,0,0-3.226-.786,7.014,7.014,0,0,0-3.285.744,7.99,7.99,0,0,0-2.633,2.332V24.9A3.007,3.007,0,0,0,85.193,23.511Zm33.969,4.38a8.092,8.092,0,0,0-4.723-4.848,10.883,10.883,0,0,0-7.489-.008,8.034,8.034,0,0,0-2.876,1.881,8.27,8.27,0,0,0-1.822,2.942,10.878,10.878,0,0,0-.635,3.795,10.755,10.755,0,0,0,.627,3.753,8.228,8.228,0,0,0,4.706,4.856,9.878,9.878,0,0,0,3.728.669,10.169,10.169,0,0,0,3.761-.66,8.117,8.117,0,0,0,2.875-1.9,8.29,8.29,0,0,0,1.839-2.959A11.535,11.535,0,0,0,119.162,27.891Zm-5.183,8.083a3.982,3.982,0,0,1-3.3,1.563,4.041,4.041,0,0,1-2.383-.711,4.481,4.481,0,0,1-1.554-2.048,8.252,8.252,0,0,1-.544-3.126,8.33,8.33,0,0,1,.552-3.16,4.4,4.4,0,0,1,1.571-2.048,4.093,4.093,0,0,1,2.358-.694,3.99,3.99,0,0,1,3.3,1.555,6.85,6.85,0,0,1,1.229,4.346A6.826,6.826,0,0,1,113.979,35.974Zm23.2,4.28a1.991,1.991,0,0,0,1.546.677,2.019,2.019,0,0,0,1.555-.652,2.8,2.8,0,0,0,.6-1.956V18.195a2.944,2.944,0,0,0-.56-1.948,1.98,1.98,0,0,0-1.6-.66,1.9,1.9,0,0,0-1.6.719,3.406,3.406,0,0,0-.56,2.123v6.737a9.282,9.282,0,0,0-2.641-2.081,7.39,7.39,0,0,0-3.327-.677,6.95,6.95,0,0,0-5.5,2.391,9.8,9.8,0,0,0-2.09,6.67,12.921,12.921,0,0,0,.527,3.761,9.024,9.024,0,0,0,1.546,3.026,7.077,7.077,0,0,0,2.416,1.981,6.722,6.722,0,0,0,3.034.694,7.291,7.291,0,0,0,2.282-.343,6.826,6.826,0,0,0,1.939-1,11.6,11.6,0,0,0,1.814-1.714v0.451A2.786,2.786,0,0,0,137.182,40.253Zm-9.044-11.719a4.558,4.558,0,0,1,1.53-2.04,3.736,3.736,0,0,1,2.24-.71,3.838,3.838,0,0,1,2.215.694,4.717,4.717,0,0,1,1.605,2.006,7.575,7.575,0,0,1,.593,3.134,7.776,7.776,0,0,1-.593,3.235,4.319,4.319,0,0,1-1.588,1.922,4.043,4.043,0,0,1-2.2.627,3.9,3.9,0,0,1-2.19-.66,4.41,4.41,0,0,1-1.58-1.964,7.8,7.8,0,0,1-.576-3.16A8.111,8.111,0,0,1,128.138,28.535Zm33.526,3.728a2.275,2.275,0,0,0,.986-2.232,7.674,7.674,0,0,0-.953-3.644,7.423,7.423,0,0,0-2.867-2.917,8.881,8.881,0,0,0-4.589-1.128A10.2,10.2,0,0,0,150.5,23a7.611,7.611,0,0,0-2.842,1.9,8.288,8.288,0,0,0-1.756,2.967,11.356,11.356,0,0,0-.6,3.753,9.338,9.338,0,0,0,2.44,6.8,9.1,9.1,0,0,0,6.838,2.508,10.592,10.592,0,0,0,3.4-.5,8.329,8.329,0,0,0,2.457-1.262,5.75,5.75,0,0,0,1.463-1.588,2.971,2.971,0,0,0,.485-1.446,1.374,1.374,0,0,0-.435-1.087,1.654,1.654,0,0,0-1.137-.385,1.5,1.5,0,0,0-1,.3q-0.852.8-1.387,1.27a9.988,9.988,0,0,1-1.171.878,4.86,4.86,0,0,1-1.312.6,5.459,5.459,0,0,1-1.5.192,4.193,4.193,0,0,1-3.853-2.391,6.055,6.055,0,0,1-.627-2.742h8.927A6.146,6.146,0,0,0,161.664,32.262ZM151.291,26.7a3.652,3.652,0,0,1,2.8-1.179,3.78,3.78,0,0,1,2.884,1.162,5.556,5.556,0,0,1,1.262,3.5h-8.275A5.862,5.862,0,0,1,151.291,26.7Z" transform="translate(-38.031 -15.594)"/>
</svg>
